<svg width="500" height="500" viewBox="0 0 500 500" fill="none" xmlns="http://www.w3.org/2000/svg">
<rect width="500" height="500" fill="white"/>
<circle cx="193" cy="128" r="31" fill="white" stroke="black" stroke-width="2"/>
<rect x="192" y="49" width="2" height="47" fill="black"/>
<rect x="265.988" y="49.9614" width="10.6733" height="103.188" transform="rotate(-45 265.988 49.9614)" fill="white" stroke="black" stroke-width="2"/>
<rect x="154" y="53" width="11" height="193" transform="rotate(-90 154 53)" fill="white" stroke="black" stroke-width="2"/>
<rect x="337" y="42" width="10" height="382" fill="white" stroke="black" stroke-width="2"/>
<rect x="59" y="430" width="10" height="382" transform="rotate(-90 59 430)" fill="white" stroke="black" stroke-width="2"/>
<rect x="192" y="160" width="2" height="88" fill="black"/>
<rect x="149" y="170" width="2" height="88" transform="rotate(-90 149 170)" fill="black"/>
<rect x="192" y="248.414" width="2" height="48.8695" transform="rotate(-45 192 248.414)" fill="black"/>
<rect x="192.556" y="247" width="2" height="48.8695" transform="rotate(45 192.556 247)" fill="black"/>
</svg>
