<svg viewBox="0 0 19 14" fill="none" xmlns="http://www.w3.org/2000/svg">
  <path fill-rule="evenodd" clip-rule="evenodd" d="M0.955008 8.0761C0.674369 7.80353 0.5 7.42213 0.5 7C0.5 6.57788 0.674365 6.19648 0.954999 5.92391L6.43957 0.43934C7.02535 -0.146447 7.9751 -0.146447 8.56089 0.43934C9.14667 1.02513 9.14667 1.97487 8.56089 2.56066L5.62155 5.5H17C17.8284 5.5 18.5 6.17157 18.5 7C18.5 7.82843 17.8284 8.5 17 8.5H5.62155L8.56089 11.4393C9.14667 12.0251 9.14667 12.9749 8.56089 13.5607C7.9751 14.1464 7.02535 14.1464 6.43957 13.5607L0.955008 8.0761Z" />
</svg>