<?xml version="1.0" encoding="utf-8"?>
<!-- Generator: Adobe Illustrator 16.0.0, SVG Export Plug-In . SVG Version: 6.00 Build 0)  -->
<!DOCTYPE svg PUBLIC "-//W3C//DTD SVG 1.1//EN" "http://www.w3.org/Graphics/SVG/1.1/DTD/svg11.dtd">
<svg version="1.1" id="Capa_1" xmlns="http://www.w3.org/2000/svg" xmlns:xlink="http://www.w3.org/1999/xlink" x="0px" y="0px"
	 width="32px" height="32px" viewBox="0 0 32 32" enable-background="new 0 0 32 32" xml:space="preserve">
<path d="M31.891,16c0-0.011-0.01-0.021-0.021-0.021h-4.488c0-0.009,0.001-0.017,0.001-0.026c0-6.269-5.095-11.368-11.361-11.379
	V0.131c0-0.012-0.009-0.021-0.021-0.021s-0.021,0.009-0.021,0.021v4.442C9.713,4.585,4.618,9.685,4.618,15.953
	c0,0.009,0.001,0.017,0.001,0.026H0.131C0.12,15.979,0.11,15.988,0.11,16s0.009,0.021,0.021,0.021h4.49
	c0.037,6.237,5.114,11.3,11.357,11.312v4.536c0,0.014,0.02,0.015,0.021,0.015s0.021-0.001,0.021-0.015v-4.536
	c6.243-0.012,11.321-5.075,11.358-11.312h4.49C31.881,16.021,31.891,16.011,31.891,16z M27.338,15.953
	c0,0.009-0.001,0.017-0.001,0.026h-3.483c0-0.009,0.001-0.017,0.001-0.026c0-4.324-3.513-7.841-7.833-7.853V4.616
	C22.264,4.628,27.338,9.709,27.338,15.953z M20.631,16.021h3.172c-0.037,4.265-3.511,7.725-7.782,7.737v-3.127
	c0-0.013-0.009-0.022-0.021-0.022s-0.021,0.01-0.021,0.022v3.127c-4.272-0.012-7.746-3.472-7.783-7.737h3.173
	c0.012,0,0.021-0.009,0.021-0.021s-0.009-0.021-0.021-0.021H8.194c0-0.009-0.001-0.017-0.001-0.026c0-4.298,3.491-7.794,7.786-7.806
	v3.127c0,0.016,0.02,0.016,0.021,0.016s0.021,0,0.021-0.016V8.147c4.293,0.012,7.785,3.508,7.785,7.806
	c0,0.009-0.001,0.017-0.001,0.026h-3.174c-0.013,0-0.022,0.009-0.022,0.021S20.618,16.021,20.631,16.021z M4.661,15.953
	c0-6.244,5.076-11.325,11.318-11.337V8.1c-4.321,0.012-7.833,3.529-7.833,7.853c0,0.009,0.001,0.017,0.001,0.026H4.662
	C4.662,15.97,4.661,15.962,4.661,15.953z M4.664,16.021h3.485c0.037,4.293,3.532,7.775,7.83,7.787v3.481
	C9.759,27.277,4.701,22.233,4.664,16.021z M16.021,27.289v-3.481c4.298-0.012,7.793-3.493,7.831-7.787h3.482
	C27.298,22.233,22.24,27.277,16.021,27.289z"/>
</svg>
