<svg width="12" height="9" viewBox="0 0 12 9" fill="none" xmlns="http://www.w3.org/2000/svg">
<path fill-rule="evenodd" clip-rule="evenodd" d="M11.8536 4.85357C11.8437 4.86345 11.8335 4.87284 11.823 4.88173L7.82926 8.3763C7.62145 8.55814 7.30556 8.53708 7.12372 8.32926C6.94188 8.12144 6.96294 7.80556 7.17076 7.62372L10.1693 5H0.5C0.223858 5 0 4.77614 0 4.5C0 4.22386 0.223858 4 0.5 4H10.1693L7.17076 1.3763C6.96294 1.19445 6.94188 0.878573 7.12372 0.670755C7.30556 0.462936 7.62145 0.441878 7.82926 0.623718L11.823 4.11828C11.8335 4.12717 11.8437 4.13656 11.8536 4.14644C11.8946 4.18739 11.9271 4.23397 11.951 4.28385C11.9592 4.30095 11.9664 4.3184 11.9725 4.33611C11.9838 4.36853 11.9915 4.40183 11.9959 4.43543C11.9986 4.45688 12 4.47845 12 4.50001C12 4.52767 11.9978 4.55537 11.9932 4.58279C11.989 4.60795 11.9828 4.63287 11.9748 4.65733C11.9681 4.6773 11.9602 4.69695 11.951 4.71616C11.9271 4.76604 11.8946 4.81262 11.8536 4.85357Z" fill="#00A878"/>
</svg>
