<svg width="12" height="8" viewBox="0 0 12 8" fill="none" xmlns="http://www.w3.org/2000/svg">
<path fill-rule="evenodd" clip-rule="evenodd" d="M11.8536 4.21347C11.8347 4.23245 11.8145 4.24965 11.7933 4.26502L7.80242 7.29615C7.58252 7.46317 7.26885 7.4203 7.10183 7.2004C6.9348 6.98049 6.97767 6.66683 7.19758 6.4998L10.1037 4.29251H0.434204C0.1944 4.29251 0 4.09811 0 3.8583C0 3.6185 0.1944 3.4241 0.434204 3.4241H10.0997L7.19755 1.21947C6.97766 1.05243 6.93481 0.738756 7.10185 0.518865C7.26889 0.298973 7.58256 0.256127 7.80245 0.423167L11.7933 3.4548C11.8145 3.47012 11.8346 3.48725 11.8535 3.50616C11.895 3.54761 11.9281 3.59511 11.9521 3.64616C11.9844 3.71418 12.0001 3.78725 12 3.85991C12.0001 3.93257 11.9844 4.00564 11.9521 4.07366C11.9281 4.12463 11.8951 4.17206 11.8536 4.21347Z" fill="#F38010"/>
</svg>
