<svg width="25" height="25" viewBox="0 0 25 25" fill="none" xmlns="http://www.w3.org/2000/svg">
<path fill-rule="evenodd" clip-rule="evenodd" d="M13.435 6.46447C15.3877 8.41709 15.3877 11.5829 13.435 13.5355C11.4824 15.4882 8.31658 15.4882 6.36396 13.5355C4.41134 11.5829 4.41134 8.41709 6.36396 6.46447C8.31658 4.51184 11.4824 4.51184 13.435 6.46447ZM15.5063 14.1925C17.5618 11.4506 17.3428 7.54383 14.8492 5.05025C12.1156 2.31658 7.68342 2.31658 4.94975 5.05025C2.21608 7.78392 2.21608 12.2161 4.94975 14.9497C7.44336 17.4434 11.3502 17.6623 14.0921 15.6067L17.6778 19.1924C18.0683 19.5829 18.7015 19.5829 19.092 19.1924C19.4825 18.8019 19.4825 18.1687 19.092 17.7782L15.5063 14.1925Z" fill="#F38010"/>
</svg>
