<svg width="32" height="32" viewBox="0 0 32 32" fill="none" xmlns="http://www.w3.org/2000/svg">
<path fill-rule="evenodd" clip-rule="evenodd" d="M15.863 9.50688C17.1483 9.47884 18.413 9.83255 19.4973 10.5233C20.5815 11.214 21.4366 12.2108 21.9544 13.3875C22.3019 14.1772 22.4869 15.0242 22.5036 15.8786L21.2382 14.0714C20.763 13.3928 19.8277 13.2279 19.1491 13.703C18.4705 14.1782 18.3056 15.1135 18.7807 15.7921L22.2222 20.707C22.6974 21.3857 23.6327 21.5506 24.3113 21.0754L29.2262 17.6339C29.9048 17.1588 30.0697 16.2235 29.5946 15.5449C29.1194 14.8662 28.1841 14.7013 27.5055 15.1765L25.4868 16.5899C25.5797 15.0832 25.3124 13.5704 24.7003 12.1792C23.9436 10.4594 22.6939 9.00266 21.1092 7.99312C19.5245 6.98357 17.6761 6.46661 15.7976 6.5076C13.9191 6.54859 12.095 7.14569 10.5559 8.22339C9.01675 9.3011 7.83177 10.811 7.15077 12.5622C6.46978 14.3133 6.32336 16.2271 6.73004 18.0615C7.13671 19.8959 8.07821 21.5685 9.43547 22.8678C10.7927 24.1671 12.5048 25.0347 14.3552 25.361C15.171 25.5049 15.949 24.9601 16.0929 24.1443C16.2367 23.3284 15.692 22.5504 14.8761 22.4066C13.6101 22.1833 12.4387 21.5897 11.51 20.7007C10.5814 19.8117 9.93717 18.6673 9.65892 17.4122C9.38067 16.1571 9.48085 14.8477 9.9468 13.6495C10.4127 12.4513 11.2235 11.4182 12.2766 10.6808C13.3297 9.94347 14.5778 9.53493 15.863 9.50688Z" fill="black"/>
</svg>
